<?xml version="1.0" encoding="UTF-8"?>
<svg version="1.1" xmlns="http://www.w3.org/2000/svg" width="500" height="245">
<path d="M0 0 C7.83406295 6.88255733 11.50708087 13.39715124 12.9296875 23.6953125 C13.48181884 34.78930031 12.83727025 45.92939799 9.9296875 56.6953125 C10.53296875 56.68371094 11.13625 56.67210938 11.7578125 56.66015625 C12.55703125 56.65113281 13.35625 56.64210938 14.1796875 56.6328125 C14.96859375 56.62121094 15.7575 56.60960938 16.5703125 56.59765625 C18.83659752 56.69145944 20.758577 57.06290187 22.9296875 57.6953125 C23.20353271 56.9741626 23.47737793 56.2530127 23.75952148 55.51000977 C24.90020078 52.76623936 26.20179083 50.25174217 27.65234375 47.66015625 C28.18674072 46.6952124 28.7211377 45.73026855 29.27172852 44.73608398 C30.12335571 43.1999646 30.12335571 43.1999646 30.9921875 41.6328125 C35.74483869 32.98055008 40.13400711 24.27252378 44.03735352 15.20483398 C50.96740304 -0.8581834 50.96740304 -0.8581834 59.65234375 -4.421875 C63.37510526 -5.42466892 66.63912483 -5.60552333 70.4921875 -5.6171875 C71.77222656 -5.63394531 73.05226563 -5.65070312 74.37109375 -5.66796875 C78.16678096 -5.28048367 79.96308283 -4.65696873 82.9296875 -2.3046875 C84.4140625 -0.31640625 84.4140625 -0.31640625 85.6796875 2.0078125 C101.76341458 30.26745574 124.53864219 61.24471513 152.0859375 79.3125 C152.694375 79.76882812 153.3028125 80.22515625 153.9296875 80.6953125 C153.9296875 81.3553125 153.9296875 82.0153125 153.9296875 82.6953125 C140.98828135 82.15734596 128.18729916 80.93666911 115.31814957 79.49490547 C108.47816624 78.74237018 101.63084243 78.05901183 94.78447151 77.36744785 C88.80224876 76.7594009 82.82541246 76.12374443 76.85253906 75.42944336 C71.0212008 74.75302581 65.18635469 74.15071282 59.34206772 73.59773064 C57.13301367 73.37563208 54.92642852 73.12724031 52.72345352 72.85128975 C41.45990915 71.04059973 41.45990915 71.04059973 30.85506439 73.96604538 C27.21879522 77.14035709 24.55680846 80.82838861 22.04595566 84.92494011 C20.39140225 87.54901897 18.41900213 89.88296149 16.4296875 92.2578125 C15.72585938 93.12535156 15.02203125 93.99289063 14.296875 94.88671875 C8.80472924 101.4029775 2.97629738 107.69064698 -3.0703125 113.6953125 C-2.17260132 113.68278442 -1.27489014 113.67025635 -0.34997559 113.65734863 C11.24315938 113.49663151 22.83638114 113.34315149 34.4296875 113.1953125 C35.36071415 113.18343525 36.2917408 113.171558 37.25098038 113.15932083 C63.87358443 112.82191209 90.49234722 112.59973816 117.1171875 112.6328125 C117.81143829 112.63366852 118.50568909 112.63452454 119.22097778 112.63540649 C127.45724451 112.6463553 135.69346324 112.66663638 143.9296875 112.6953125 C142.6096875 116.3253125 141.2896875 119.9553125 139.9296875 123.6953125 C133.77124259 124.74808286 127.69192062 124.94080383 121.45263672 125.08422852 C120.31491821 125.11363525 119.17719971 125.14304199 118.00500488 125.17333984 C114.24821811 125.26935839 110.49131515 125.35941789 106.734375 125.44921875 C104.10425111 125.5147655 101.47413441 125.58060162 98.84402466 125.64671326 C93.32463201 125.78482637 87.80516713 125.91967792 82.28564453 126.05249023 C75.96071794 126.20471284 69.63592101 126.36159882 63.31117618 126.52118355 C57.1779718 126.67585671 51.04469595 126.82749397 44.91138077 126.977705 C42.32742768 127.04121064 39.74349098 127.10538723 37.1595726 127.17028999 C22.07939194 127.54696061 7.01473374 127.78661985 -8.0703125 127.6953125 C-8.33691177 128.91986649 -8.60351105 130.14442047 -8.87818909 131.40608215 C-10.30771578 137.97223888 -11.74259186 144.52641911 -13.44921875 151.02734375 C-13.67714111 151.90100586 -13.90506348 152.77466797 -14.13989258 153.67480469 C-14.58216014 155.35373933 -15.03334133 157.03036006 -15.49487305 158.70410156 C-16.88594845 164.00208509 -17.79572996 169.21146076 -17.0703125 174.6953125 C-15.44799699 177.98475626 -15.44799699 177.98475626 -12.0703125 179.6953125 C-2.70825773 181.91600467 5.16353047 177.44381458 12.9296875 172.6953125 C16.47953786 170.24287597 19.71498284 167.57004839 22.9296875 164.6953125 C23.42774902 164.25074707 23.92581055 163.80618164 24.43896484 163.34814453 C28.95252275 159.30402978 33.44585899 155.25215139 37.62890625 150.86328125 C39.9296875 148.6953125 39.9296875 148.6953125 42.4296875 148.6953125 C45.13753586 149.77845184 47.49432465 151.0949312 49.9296875 152.6953125 C48.28353011 156.73765166 45.44299293 159.63146865 42.4921875 162.7578125 C41.95505127 163.32999512 41.41791504 163.90217773 40.86450195 164.49169922 C39.7559266 165.66755475 38.64450556 166.84073385 37.53027344 168.01123047 C36.08344915 169.53352972 34.6502608 171.06876047 33.21875 172.60546875 C19.07990917 187.35996481 0.94059043 200.27895264 -20.1953125 201.0703125 C-28.40695061 200.76666672 -35.29096517 198.61914351 -41.0703125 192.6953125 C-48.75953136 181.71071414 -42.97677494 161.83210929 -41.0703125 149.6953125 C-42.05644531 150.55189453 -42.05644531 150.55189453 -43.0625 151.42578125 C-71.68242104 175.81864078 -106.91603637 200.01752889 -146.0703125 198.3828125 C-155.28741085 198.03040191 -161.68757323 200.51776864 -169.6640625 204.9453125 C-173.0703125 206.6953125 -173.0703125 206.6953125 -177.0703125 206.6953125 C-178.61328125 205.40234375 -178.61328125 205.40234375 -180.2578125 203.5078125 C-211.58997553 170.73575227 -259.55405035 149.42363312 -300.8203125 131.9453125 C-301.49192413 131.66058075 -302.16353577 131.375849 -302.85549927 131.08248901 C-308.54946799 128.68060529 -314.24257168 126.29380202 -320.09570312 124.30273438 C-321.06905609 123.97024689 -321.06905609 123.97024689 -322.06207275 123.63104248 C-323.85255242 123.02865263 -325.64926015 122.44486632 -327.44628906 121.86230469 C-328.74518066 121.28464355 -328.74518066 121.28464355 -330.0703125 120.6953125 C-330.4003125 119.7053125 -330.7303125 118.7153125 -331.0703125 117.6953125 C-316.63287221 117.52335676 -302.19537263 117.35689848 -287.7578125 117.1953125 C-286.69688511 117.18343525 -285.63595772 117.171558 -284.54288101 117.15932083 C-252.05060915 116.79723066 -219.56487753 116.53446057 -187.0703125 116.6953125 C-186.94140625 115.95595459 -186.8125 115.21659668 -186.6796875 114.45483398 C-182.37206022 94.94797854 -167.56829967 77.58428455 -155.0703125 62.6953125 C-154.20294359 61.65542138 -153.33592207 60.61524045 -152.46917725 59.5748291 C-151.67755188 58.62458862 -150.88592651 57.67434814 -150.0703125 56.6953125 C-163.39759217 54.85451506 -176.77369892 53.66277837 -190.17250443 52.4772625 C-194.18306064 52.12238613 -198.19329775 51.76408515 -202.20346069 51.40480042 C-209.97941695 50.70868309 -217.75573155 50.01662456 -225.53210449 49.32518005 C-235.4664544 48.44174833 -245.40067978 47.55694503 -255.33448637 46.66742283 C-259.95612352 46.25374961 -264.57807844 45.84375107 -269.20010376 45.43443298 C-271.6146965 45.21870507 -274.0292784 45.00285577 -276.44384766 44.78686523 C-278.08497025 44.6426841 -278.08497025 44.6426841 -279.75924683 44.49559021 C-284.56948853 44.06270964 -289.31980757 43.59757874 -294.0703125 42.6953125 C-292.30982603 36.7736762 -289.66392788 31.28443578 -287.0703125 25.6953125 C-277.67967703 26.31368904 -268.32711942 27.12473252 -258.96826172 28.10986328 C-257.62297223 28.24977425 -256.27766002 28.38946681 -254.93232727 28.52896118 C-252.06826636 28.82626405 -249.20434079 29.12482685 -246.34051132 29.42435074 C-241.81036172 29.89788794 -237.27975547 30.36695113 -232.74905396 30.83517456 C-219.87736506 32.16592303 -207.00603533 33.50005234 -194.13574219 34.84423828 C-187.00262295 35.58919076 -179.8690077 36.32918506 -172.73479664 37.06360996 C-168.96850834 37.45155205 -165.20253165 37.84211168 -161.43716049 38.2388649 C-157.90658014 38.61087752 -154.37539422 38.9764629 -150.84363365 39.33709335 C-148.93082332 39.53415196 -147.01873396 39.73816986 -145.10667419 39.94238281 C-143.96866867 40.05736115 -142.83066315 40.17233948 -141.65817261 40.290802 C-140.66975813 40.39366579 -139.68134365 40.49652958 -138.66297722 40.60251045 C-135.21212702 40.72603046 -132.99419725 40.42839496 -130.2734375 38.26953125 C-129.62890625 37.64691406 -128.984375 37.02429687 -128.3203125 36.3828125 C-104.54365488 14.66524451 -74.8251124 -1.02689357 -43.0703125 -6.6796875 C-42.12720215 -6.84758789 -41.1840918 -7.01548828 -40.21240234 -7.18847656 C-26.34263826 -9.45482587 -11.65730748 -8.75397807 0 0 Z M-64.0703125 13.6953125 C-65.01132812 14.18644531 -65.95234375 14.67757812 -66.921875 15.18359375 C-78.31027268 21.47876345 -88.07173911 29.92487187 -97.9453125 38.3203125 C-98.55874512 38.84133545 -99.17217773 39.3623584 -99.80419922 39.89916992 C-101.24665416 41.14122622 -102.66162965 42.41508098 -104.0703125 43.6953125 C-104.0703125 44.0253125 -104.0703125 44.3553125 -104.0703125 44.6953125 C-84.56389102 46.90326862 -65.05046839 49.04621798 -45.52783203 51.10610962 C-43.39779554 51.33136608 -41.26791053 51.55805976 -39.13818359 51.78622437 C-36.12118697 52.10899742 -33.10365978 52.42628011 -30.0859375 52.7421875 C-29.19142883 52.83887222 -28.29692017 52.93555695 -27.37530518 53.03517151 C-22.24137379 53.56549917 -17.23174505 53.78644054 -12.0703125 53.6953125 C-6.48059432 32.97957662 -6.48059432 32.97957662 -11.0703125 12.6953125 C-14.97768913 8.06815596 -18.64050673 4.98162719 -24.75 4.26171875 C-26.14823953 4.23815292 -27.54701488 4.23799086 -28.9453125 4.2578125 C-29.69055176 4.26466064 -30.43579102 4.27150879 -31.20361328 4.27856445 C-42.88722439 4.60909255 -53.76353594 8.30012301 -64.0703125 13.6953125 Z M73.9296875 17.6953125 C72.54808255 19.2066102 72.54808255 19.2066102 71.1640625 21.21875 C70.61016846 21.98429199 70.05627441 22.74983398 69.4855957 23.53857422 C68.889646 24.37404785 68.29369629 25.20952148 67.6796875 26.0703125 C62.09916191 33.78458997 56.37367022 41.35440055 50.46191406 48.81787109 C47.69619127 52.33045232 45.10611384 55.77313075 42.9296875 59.6953125 C57.22733111 61.50308448 71.54283066 63.12000753 85.87667847 64.61047363 C87.61162671 64.79112445 89.34643158 64.97315798 91.08108521 65.15661621 C93.55232888 65.41731858 96.02409606 65.67233986 98.49609375 65.92578125 C99.2286438 66.0037645 99.96119385 66.08174774 100.71594238 66.16209412 C105.47768331 66.64145229 110.14356089 66.76159489 114.9296875 66.6953125 C111.64103766 62.81639218 108.30438577 59.00575379 104.8671875 55.2578125 C95.57633222 44.93637496 86.95073373 34.2060443 79.35595703 22.57177734 C78.26045042 20.91453668 77.10106566 19.2998232 75.9296875 17.6953125 C75.2696875 17.6953125 74.6096875 17.6953125 73.9296875 17.6953125 Z M-122.55859375 60.46875 C-123.16058594 61.32726562 -123.76257813 62.18578125 -124.3828125 63.0703125 C-125.115 64.07964844 -125.8471875 65.08898437 -126.6015625 66.12890625 C-126.99214844 66.69722168 -127.38273437 67.26553711 -127.78515625 67.85107422 C-129.17733256 69.84888954 -130.63215358 71.78881526 -132.1015625 73.73046875 C-138.05645544 81.670326 -143.55856696 89.82763372 -148.6953125 98.3203125 C-149.19200439 99.13685303 -149.68869629 99.95339355 -150.20043945 100.79467773 C-150.66538818 101.57915283 -151.13033691 102.36362793 -151.609375 103.171875 C-152.01365723 103.85330566 -152.41793945 104.53473633 -152.83447266 105.23681641 C-154.53985182 108.62938222 -155.77742516 112.12521772 -157.0703125 115.6953125 C-145.84115611 115.72612057 -134.61200444 115.74636249 -123.3828125 115.7578125 C-122.54926491 115.75866852 -121.71571732 115.75952454 -120.85691071 115.76040649 C-90.58308537 115.78785322 -60.33587452 115.44804774 -30.0703125 114.6953125 C-26.62218364 103.9029125 -23.23155945 93.1120004 -20.1953125 82.1953125 C-19.73511719 80.57302734 -19.73511719 80.57302734 -19.265625 78.91796875 C-18.976875 77.88542969 -18.688125 76.85289063 -18.390625 75.7890625 C-18.00801514 74.42297852 -18.00801514 74.42297852 -17.61767578 73.02929688 C-16.95615047 70.60807138 -16.95615047 70.60807138 -17.0703125 67.6953125 C-28.10673104 66.12145827 -39.14402813 64.9598381 -50.24609375 63.96875 C-51.94949184 63.81481821 -53.65287597 63.6607318 -55.35624695 63.50650024 C-58.89656792 63.18673431 -62.4370952 62.86938585 -65.9777832 62.55371094 C-70.49113679 62.15103749 -75.00382234 61.74134457 -79.51636982 61.32974815 C-83.02243775 61.01089327 -86.52887109 60.69621112 -90.03542137 60.3827095 C-91.69914314 60.23338732 -93.362743 60.08269974 -95.02620888 59.93055344 C-109.41646453 57.42494609 -109.41646453 57.42494609 -122.55859375 60.46875 Z M5.9296875 69.6953125 C4.9396875 74.6453125 3.9496875 79.5953125 2.9296875 84.6953125 C7.13481113 80.54591014 7.13481113 80.54591014 10.7421875 76.0703125 C11.16113281 75.50054687 11.58007812 74.93078125 12.01171875 74.34375 C13.17294829 72.57294483 13.17294829 72.57294483 12.9296875 69.6953125 C10.6196875 69.6953125 8.3096875 69.6953125 5.9296875 69.6953125 Z M-105.28259277 129.56414795 C-108.8611347 129.65642915 -112.43979328 129.74364321 -116.01846123 129.83087826 C-119.52765683 129.91700973 -123.03677262 130.00610199 -126.54587173 130.09607124 C-128.19053183 130.1379519 -129.83521271 130.17902623 -131.47991562 130.2191906 C-142.0300801 130.47911305 -152.5422617 130.96109574 -163.0703125 131.6953125 C-166.09222819 142.08314767 -167.35483459 155.60007587 -162.52734375 165.61328125 C-157.19421397 173.23408065 -148.8949602 176.76269873 -140.0703125 178.6953125 C-105.67672879 181.70864763 -78.63016851 164.82717548 -53.0703125 143.6953125 C-50.34372686 141.36964835 -47.68812966 138.97453883 -45.0625 136.53515625 C-43.23832615 134.85047805 -41.37107998 133.26166255 -39.4453125 131.6953125 C-38.6615625 131.0353125 -37.8778125 130.3753125 -37.0703125 129.6953125 C-37.0703125 129.3653125 -37.0703125 129.0353125 -37.0703125 128.6953125 C-59.82198477 128.53453204 -82.53972861 128.96923781 -105.28259277 129.56414795 Z M-242.0703125 133.6953125 C-238.12589084 136.94507393 -234.12141572 139.34658256 -229.5703125 141.6328125 C-219.77169932 146.67576824 -210.49321613 152.49922291 -201.17773438 158.37402344 C-198.82781129 159.84735334 -196.45817088 161.28430528 -194.0703125 162.6953125 C-194.09351563 161.53515625 -194.11671875 160.375 -194.140625 159.1796875 C-194.15941212 157.60156904 -194.17760911 156.02344349 -194.1953125 154.4453125 C-194.21207031 153.68734375 -194.22882813 152.929375 -194.24609375 152.1484375 C-194.30139629 145.51213283 -193.3057622 139.2054499 -192.0703125 132.6953125 C-196.94091433 132.67023812 -201.81147703 132.65227907 -206.68212891 132.64038086 C-208.3325262 132.63541075 -209.98291924 132.62863233 -211.63330078 132.61987305 C-221.83572096 132.56715537 -231.90070012 132.77729437 -242.0703125 133.6953125 Z " fill="#384390" transform="translate(337.0703125,18.3046875)"/>
<path d="M0 0 C9.34014241 0.61992931 18.64773832 1.4116088 27.95922852 2.36694336 C29.28992011 2.50194505 30.6206295 2.63677134 31.95135498 2.7714386 C35.51967354 3.13312786 39.0877155 3.49747633 42.65569043 3.8625381 C45.65238892 4.16892603 48.64921572 4.47404893 51.64603943 4.7792092 C58.72248055 5.49984052 65.79868853 6.22272968 72.87475586 6.94702148 C80.13851326 7.690481 87.40267194 8.42992189 94.66703659 9.16742224 C100.94117786 9.80454742 107.21504982 10.44427887 113.4887194 11.08603197 C117.21952342 11.46763662 120.95041859 11.84828134 124.6815815 12.22636223 C128.19093444 12.5820736 131.69993658 12.94107339 135.20870972 13.30245781 C137.08686681 13.49511736 138.96535521 13.68453883 140.84385681 13.87380981 C147.66123442 14.5796351 154.41873743 15.4709647 161.18481064 16.56637287 C165.13694417 17.17512493 169.0897338 17.54347878 173.07421875 17.859375 C174.78370238 18.0040208 176.49317447 18.14880294 178.20263672 18.29370117 C179.53968658 18.40468643 179.53968658 18.40468643 180.90374756 18.51791382 C200.75170618 20.17267193 220.56536676 22.12923555 240.375 24.1875 C241.65378021 24.31983032 242.93256042 24.45216064 244.25009155 24.58850098 C247.9039183 24.96716147 251.55748734 25.34819328 255.2109375 25.73046875 C256.8456324 25.90055702 256.8456324 25.90055702 258.51335144 26.07408142 C263.6934649 26.62050256 268.85026331 27.21602789 274 28 C272.8 38.2 272.8 38.2 269 42 C266.80897522 42.0776062 266.80897522 42.0776062 264.03930664 41.83154297 C262.99558899 41.74406296 261.95187134 41.65658295 260.87652588 41.56645203 C259.7326239 41.45944473 258.58872192 41.35243744 257.41015625 41.2421875 C256.21831726 41.13908768 255.02647827 41.03598785 253.79852295 40.92976379 C250.55709408 40.64711088 247.31670604 40.3548733 244.0765419 40.05813217 C240.72771738 39.7536313 237.37783891 39.46120073 234.02807617 39.16723633 C226.01719139 38.46136576 218.00849851 37.73242232 210 37 C207.66471428 36.78726398 205.32942786 36.57453572 202.99414062 36.36181641 C190.99371467 35.26614151 178.9956513 34.14675042 167 33 C166.5656665 33.91628174 166.5656665 33.91628174 166.12255859 34.85107422 C164.65713272 37.65635446 162.71658897 39.74911738 160.625 42.125 C151.9250715 52.29660615 144.86837845 63.76639727 137.9375 75.1875 C137.40080688 76.0678894 137.40080688 76.0678894 136.85327148 76.96606445 C134.49783294 80.92168047 132.84405533 84.69720422 131 89 C172.58 89 214.16 89 257 89 C255 99 255 99 252 102 C249.70223226 103.14888387 248.30393797 103.16442624 245.7449646 103.23414612 C244.40453094 103.27407181 244.40453094 103.27407181 243.03701782 103.31480408 C242.05333221 103.33926102 241.06964661 103.36371796 240.05615234 103.38891602 C239.02151855 103.41832275 237.98688477 103.44772949 236.92089844 103.47802734 C233.47602303 103.57467049 230.03100579 103.66442302 226.5859375 103.75390625 C224.18005519 103.81941927 221.77418166 103.88525561 219.36831665 103.95140076 C214.30242289 104.08964286 209.23645538 104.2246047 204.17041016 104.35717773 C197.74484708 104.52548832 191.31949683 104.70070501 184.89418602 104.87835789 C179.90925662 105.01556093 174.92424251 105.14946097 169.93919754 105.2823925 C167.57542205 105.34570651 165.21166919 105.40987242 162.84794235 105.47497749 C149.96978375 105.82735395 137.10752294 106.04310175 124.22432899 106.00462532 C116.67660636 105.98537846 109.15257389 106.12008451 101.609375 106.40234375 C100.40661926 106.44436417 99.20386353 106.48638458 97.96466064 106.52967834 C95.47490304 106.61760828 92.98521571 106.7075525 90.49560547 106.79956055 C86.7120885 106.93889617 82.92835532 107.07046857 79.14453125 107.20117188 C76.69529631 107.28861027 74.2460769 107.37648489 71.796875 107.46484375 C70.68729431 107.50343002 69.57771362 107.5420163 68.43450928 107.58177185 C61.26763368 107.851275 54.1417396 108.3435319 47 109 C47.72767578 109.40005753 48.45535156 109.80011505 49.20507812 110.21229553 C85.61991839 130.25017618 85.61991839 130.25017618 97.65625 140.11328125 C100.25295434 142.20362824 102.92267389 144.1734959 105.60595703 146.15063477 C114.06908137 152.39921179 122.15598718 158.98975638 130 166 C130.62261719 166.54527344 131.24523437 167.09054688 131.88671875 167.65234375 C133 169 133 169 133 172 C129.92274141 173.51270236 126.83728731 175.00788581 123.75 176.5 C122.87730469 176.92925781 122.00460938 177.35851562 121.10546875 177.80078125 C120.26113281 178.20683594 119.41679687 178.61289063 118.546875 179.03125 C117.77182617 179.40830078 116.99677734 179.78535156 116.19824219 180.17382812 C114 181 114 181 110 181 C108.45703125 179.70703125 108.45703125 179.70703125 106.8125 177.8125 C75.48033697 145.04043977 27.51626215 123.72832062 -13.75 106.25 C-14.42161163 105.96526825 -15.09322327 105.6805365 -15.78518677 105.38717651 C-21.47915549 102.98529279 -27.17225918 100.59848952 -33.02539062 98.60742188 C-33.6742926 98.38576355 -34.32319458 98.16410522 -34.99176025 97.93572998 C-36.78223992 97.33334013 -38.57894765 96.74955382 -40.37597656 96.16699219 C-41.2419043 95.78188477 -42.10783203 95.39677734 -43 95 C-43.33 94.01 -43.66 93.02 -44 92 C-29.56255971 91.82804426 -15.12506013 91.66158598 -0.6875 91.5 C0.37342739 91.48812275 1.43435478 91.4762455 2.52743149 91.46400833 C35.01970335 91.10191816 67.50543497 90.83914807 100 91 C100.12890625 90.26064209 100.2578125 89.52128418 100.390625 88.75952148 C104.69825228 69.25266604 119.50201283 51.88897205 132 37 C132.86736891 35.96010888 133.73439043 34.91992795 134.60113525 33.8795166 C135.39276062 32.92927612 136.18438599 31.97903564 137 31 C123.67272033 29.15920256 110.29661358 27.96746587 96.89780807 26.78195 C92.88725186 26.42707363 88.87701475 26.06877265 84.86685181 25.70948792 C77.09089555 25.01337059 69.31458095 24.32131206 61.53820801 23.62986755 C51.6038581 22.74643583 41.66963272 21.86163253 31.73582613 20.97211033 C27.11418898 20.55843711 22.49223406 20.14843857 17.87020874 19.73912048 C15.455616 19.52339257 13.0410341 19.30754327 10.62646484 19.09155273 C9.53238312 18.99543198 8.43830139 18.89931122 7.31106567 18.80027771 C2.50082397 18.36739714 -2.24949507 17.90226624 -7 17 C-5.23951353 11.0783637 -2.59361538 5.58912328 0 0 Z " fill="#787879" transform="translate(50,44)"/>
<path d="M0 0 C9.34014241 0.61992931 18.64773832 1.4116088 27.95922852 2.36694336 C29.28992011 2.50194505 30.6206295 2.63677134 31.95135498 2.7714386 C35.51967354 3.13312786 39.0877155 3.49747633 42.65569043 3.8625381 C45.65238892 4.16892603 48.64921572 4.47404893 51.64603943 4.7792092 C58.72248055 5.49984052 65.79868853 6.22272968 72.87475586 6.94702148 C80.13851326 7.690481 87.40267194 8.42992189 94.66703659 9.16742224 C100.94117786 9.80454742 107.21504982 10.44427887 113.4887194 11.08603197 C117.21952342 11.46763662 120.95041859 11.84828134 124.6815815 12.22636223 C128.19093444 12.5820736 131.69993658 12.94107339 135.20870972 13.30245781 C137.08686681 13.49511736 138.96535521 13.68453883 140.84385681 13.87380981 C147.66123442 14.5796351 154.41873743 15.4709647 161.18481064 16.56637287 C165.13694417 17.17512493 169.0897338 17.54347878 173.07421875 17.859375 C174.78370238 18.0040208 176.49317447 18.14880294 178.20263672 18.29370117 C179.53968658 18.40468643 179.53968658 18.40468643 180.90374756 18.51791382 C200.75170618 20.17267193 220.56536676 22.12923555 240.375 24.1875 C241.65378021 24.31983032 242.93256042 24.45216064 244.25009155 24.58850098 C247.9039183 24.96716147 251.55748734 25.34819328 255.2109375 25.73046875 C256.8456324 25.90055702 256.8456324 25.90055702 258.51335144 26.07408142 C263.6934649 26.62050256 268.85026331 27.21602789 274 28 C272.8 38.2 272.8 38.2 269 42 C266.80897522 42.0776062 266.80897522 42.0776062 264.03930664 41.83154297 C262.99558899 41.74406296 261.95187134 41.65658295 260.87652588 41.56645203 C259.7326239 41.45944473 258.58872192 41.35243744 257.41015625 41.2421875 C256.21831726 41.13908768 255.02647827 41.03598785 253.79852295 40.92976379 C250.55709408 40.64711088 247.31670604 40.3548733 244.0765419 40.05813217 C240.72771738 39.7536313 237.37783891 39.46120073 234.02807617 39.16723633 C226.01719139 38.46136576 218.00849851 37.73242232 210 37 C207.66471428 36.78726398 205.32942786 36.57453572 202.99414062 36.36181641 C190.99371467 35.26614151 178.9956513 34.14675042 167 33 C166.5656665 33.91628174 166.5656665 33.91628174 166.12255859 34.85107422 C164.65713272 37.65635446 162.71658897 39.74911738 160.625 42.125 C148.28263962 56.55519088 137.68678174 73.70474109 130 91 C120.1 91 110.2 91 100 91 C104.11014154 70.44929229 118.8700239 52.64186652 132 37 C132.86736891 35.96010888 133.73439043 34.91992795 134.60113525 33.8795166 C135.39276062 32.92927612 136.18438599 31.97903564 137 31 C123.67272033 29.15920256 110.29661358 27.96746587 96.89780807 26.78195 C92.88725186 26.42707363 88.87701475 26.06877265 84.86685181 25.70948792 C77.09089555 25.01337059 69.31458095 24.32131206 61.53820801 23.62986755 C51.6038581 22.74643583 41.66963272 21.86163253 31.73582613 20.97211033 C27.11418898 20.55843711 22.49223406 20.14843857 17.87020874 19.73912048 C15.455616 19.52339257 13.0410341 19.30754327 10.62646484 19.09155273 C9.53238312 18.99543198 8.43830139 18.89931122 7.31106567 18.80027771 C2.50082397 18.36739714 -2.24949507 17.90226624 -7 17 C-5.23951353 11.0783637 -2.59361538 5.58912328 0 0 Z " fill="#6E6E6E" transform="translate(50,44)"/>
<path d="M0 0 C3.0218599 2.61772058 4.56421308 5.68666918 6.4375 9.1875 C11.16090354 17.72747669 16.97577044 25.3449814 23 33 C24.17949219 34.50240234 24.17949219 34.50240234 25.3828125 36.03515625 C37.67409811 51.34419478 51.64246056 67.78608443 68.15625 78.6171875 C68.7646875 79.07351562 69.373125 79.52984375 70 80 C70 80.66 70 81.32 70 82 C56.04135231 81.33130952 42.13855154 80.22927569 28.21875 79.00390625 C27.12346481 78.90802656 26.02817963 78.81214687 24.89970398 78.71336174 C19.13288291 78.20850704 13.36636526 77.70034521 7.60009766 77.18920898 C1.64674785 76.66211674 -4.3075215 76.14625326 -10.26206207 75.63281345 C-14.85550469 75.23477664 -19.44821449 74.82874203 -24.04075623 74.42045403 C-26.23821404 74.2264894 -28.43594054 74.03554454 -30.63392639 73.84765816 C-33.68580704 73.58601671 -36.73647865 73.31313453 -39.78710938 73.03735352 C-40.69606461 72.96195847 -41.60501984 72.88656342 -42.54151917 72.80888367 C-48.77173975 72.22826025 -48.77173975 72.22826025 -51 70 C-48.49129585 65.64461085 -45.88054202 62.21858003 -42 59 C-38.84399414 58.59765625 -38.84399414 58.59765625 -35.22265625 59 C-34.20347862 59.0999955 -34.20347862 59.0999955 -33.16371155 59.20201111 C-31.62896624 59.35627862 -30.09556584 59.52433133 -28.5635376 59.70358276 C-25.78496892 60.02486366 -23.00415248 60.3017769 -20.22021484 60.57250977 C-12.67057449 61.31406496 -5.1277186 62.11739414 2.41577148 62.91870117 C5.66359804 63.2625439 8.91185296 63.60210172 12.16015625 63.94140625 C13.14564957 64.04763809 14.13114288 64.15386993 15.14649963 64.26332092 C20.13041592 64.78313013 24.98910765 65.11745972 30 65 C29.57589844 64.5875 29.15179688 64.175 28.71484375 63.75 C24.24296223 59.34691666 20.07937926 54.76592841 16 50 C15.18660156 49.07574219 14.37320313 48.15148437 13.53515625 47.19921875 C8.15709621 41.03577565 3.17455318 34.67066154 -1.5625 28 C-2.07514404 27.28207275 -2.58778809 26.56414551 -3.1159668 25.82446289 C-8.42887965 18.22577235 -8.42887965 18.22577235 -9 15 C-7.48046875 11.9921875 -7.48046875 11.9921875 -5.1875 8.875 C-2.09041054 4.69716176 -2.09041054 4.69716176 0 0 Z " fill="#040405" transform="translate(421,19)"/>
<path d="M0 0 C-2.13204549 3.79408734 -4.56818802 6.92242085 -7.4375 10.1875 C-19.74907975 24.60346621 -30.32605032 41.73361321 -38 59 C-47.9 59 -57.8 59 -68 59 C-64.05399023 39.26995115 -50.1255123 21.80703401 -37.47851562 6.765625 C-36.49924876 5.59619667 -35.52901481 4.41913968 -34.56835938 3.234375 C-26.72831713 -6.40784386 -11.15036612 -1.60313351 0 0 Z " fill="#342573" transform="translate(218,76)"/>
<path d="M0 0 C-1.32 3.63 -2.64 7.26 -4 11 C-10.15844491 12.05277036 -16.23776688 12.24549133 -22.47705078 12.38891602 C-23.61476929 12.41832275 -24.75248779 12.44772949 -25.92468262 12.47802734 C-29.68146939 12.57404589 -33.43837235 12.66410539 -37.1953125 12.75390625 C-39.82543639 12.819453 -42.45555309 12.88528912 -45.08566284 12.95140076 C-50.60505549 13.08951387 -56.12452037 13.22436542 -61.64404297 13.35717773 C-67.96896956 13.50940034 -74.29376649 13.66628632 -80.61851132 13.82587105 C-86.7517157 13.98054421 -92.88499155 14.13218147 -99.01830673 14.2823925 C-101.60225982 14.34589814 -104.18619652 14.41007473 -106.7701149 14.47497749 C-121.85029556 14.85164811 -136.91495376 15.09130735 -152 15 C-150.125 3.125 -150.125 3.125 -149 2 C-144.33176559 1.17988477 -139.79467385 0.85719242 -135.06079102 0.79467773 C-134.40056379 0.78478097 -133.74033657 0.7748842 -133.06010246 0.76468754 C-130.87473915 0.73317385 -128.68935682 0.70825636 -126.50390625 0.68359375 C-124.9383149 0.66285572 -123.37272758 0.64181151 -121.80714417 0.6204834 C-117.59805519 0.56464958 -113.3889141 0.51524488 -109.17972565 0.46757126 C-106.56370752 0.43751387 -103.94771664 0.40568353 -101.33172607 0.37332153 C-67.55377835 -0.04211794 -33.78001267 -0.11559971 0 0 Z " fill="#0F0F0F" transform="translate(481,131)"/>
<path d="M0 0 C1.58294782 -0.05437607 3.16644256 -0.09296271 4.75 -0.125 C5.63171875 -0.14820312 6.5134375 -0.17140625 7.421875 -0.1953125 C10.1135858 0.00860498 11.69904974 0.63448279 14 2 C12.90630138 3.81883578 11.79968608 5.62990978 10.6875 7.4375 C10.07261719 8.44683594 9.45773437 9.45617187 8.82421875 10.49609375 C7 13 7 13 4 14 C1.6593935 13.72230092 -0.67624308 13.39460023 -3 13 C-2.69128878 11.20767663 -2.37790936 9.41615679 -2.0625 7.625 C-1.88847656 6.62726563 -1.71445312 5.62953125 -1.53515625 4.6015625 C-1 2 -1 2 0 0 Z " fill="#242526" transform="translate(346,75)"/>
<path d="M0 0 C0.99 0.33 1.98 0.66 3 1 C0.36 3.64 -2.28 6.28 -5 9 C-5 4.61031544 -2.87194899 3.23094261 0 0 Z " fill="#171616" transform="translate(379,78)"/>
</svg>
