<?xml version="1.0" encoding="UTF-8"?>
<svg version="1.1" xmlns="http://www.w3.org/2000/svg" width="792" height="406">
<path d="M0 0 C11.22 0 22.44 0 34 0 C34.01458252 4.74737549 34.02916504 9.49475098 34.04418945 14.38598633 C34.09467206 30.12398782 34.16114394 45.86189236 34.23571491 61.59979725 C34.28051264 71.13561199 34.31996339 80.67139071 34.34643555 90.20727539 C34.36954632 98.52726798 34.40308778 106.84714505 34.44870156 115.16704577 C34.47245909 119.56464115 34.4913014 123.96212337 34.49761391 128.35978127 C33.60958206 166.71441253 33.60958206 166.71441253 48.546875 201.01171875 C50 203 50 203 51 206 C52.84131793 207.06169706 52.84131793 207.06169706 55 208 C56.38533975 208.94332473 57.75980995 209.90274288 59.125 210.875 C72.37345418 219.76512474 88.6154701 222.1637623 104.19921875 219.3125 C113.2101612 217.38537791 122.53866672 214.4934292 129.171875 207.8125 C131 206 131 206 133 206 C133.27328125 205.41476563 133.5465625 204.82953125 133.828125 204.2265625 C134.96848705 202.0598746 136.26487332 200.31524615 137.75 198.375 C140.70904843 193.95818506 142.5330312 189.43338744 144.25 184.4375 C144.49588867 183.74897949 144.74177734 183.06045898 144.99511719 182.35107422 C149.16103954 169.59760571 149.30037736 155.87443387 149.31884766 142.58789062 C149.32817706 141.01904298 149.33835003 139.45020016 149.34928894 137.88136292 C149.37626421 133.67790913 149.39164028 129.4744882 149.40471697 125.2709713 C149.42049192 120.85740828 149.4472352 116.44391104 149.4727478 112.03039551 C149.51928402 103.69757628 149.55614874 95.36474433 149.58942068 87.03186274 C149.62782134 77.53465438 149.67718364 68.03751251 149.72740483 58.54036045 C149.83034991 39.02695025 149.91828402 19.51351145 150 0 C161.22 0 172.44 0 184 0 C184.06786412 21.90618914 184.12306722 43.81229244 184.15543652 65.71856022 C184.17086928 75.89126934 184.19188973 86.06390823 184.22631836 96.23657227 C184.25633109 105.10873875 184.27560106 113.98085435 184.28226548 122.8530702 C184.28615772 127.54569169 184.29522919 132.23816766 184.31719017 136.93074226 C184.33774346 141.35892815 184.34379625 145.78691033 184.33932304 150.21513939 C184.3401399 151.82947018 184.34599229 153.44380869 184.35761642 155.05809784 C184.53120593 180.43704403 177.29540766 204.81586272 159.48242188 223.53369141 C141.24832216 241.56959439 116.99058097 246.44604104 92.25 246.3125 C91.54756165 246.31067719 90.84512329 246.30885437 90.12139893 246.30697632 C65.18375988 246.19812014 42.08626065 240.82295329 23.75390625 222.87890625 C5.47861002 203.77409303 -0.34815784 179.67783705 -0.22705078 154.05395508 C-0.22648563 152.36762499 -0.22680525 150.68129441 -0.22793579 148.9949646 C-0.22850626 144.44819647 -0.21680173 139.9015353 -0.20278788 135.35479188 C-0.19022929 130.59156995 -0.18910599 125.82834518 -0.18673706 121.06510925 C-0.1805373 112.05917163 -0.16414695 103.05328294 -0.14403808 94.0473668 C-0.12163212 83.78854714 -0.11067387 73.52972507 -0.10064721 63.27088702 C-0.0797793 42.18055802 -0.04312198 21.09029605 0 0 Z " fill="#000000" transform="translate(109,0)"/>
<path d="M0 0 C11.88 0 23.76 0 36 0 C40.4999883 11.24997075 40.4999883 11.24997075 41.86499023 15.21606445 C42.17814682 16.12201859 42.49130341 17.02797272 42.81394958 17.96138 C43.14218216 18.91900742 43.47041473 19.87663483 43.80859375 20.86328125 C44.34656334 22.42304939 44.34656334 22.42304939 44.895401 24.014328 C46.07843624 27.44625245 47.25796761 30.87937024 48.4375 34.3125 C49.27972734 36.75788848 50.12218004 39.20319936 50.96484375 41.6484375 C52.96791991 47.46269745 54.96880874 53.27770567 56.96853447 59.09311867 C59.39521413 66.14993078 61.82451473 73.20583987 64.25390625 80.26171875 C65.12811207 82.80085588 66.00229377 85.3400013 66.87646484 87.87915039 C67.09280327 88.50752776 67.30914169 89.13590513 67.53203583 89.78332424 C69.06548377 94.23751122 70.59848551 98.69185163 72.13134766 103.14624023 C78.18126958 120.72611239 84.2421709 138.30216304 90.3125 155.875 C90.69728516 156.98915283 91.08207031 158.10330566 91.47851562 159.2512207 C92.22470641 161.41166211 92.97107111 163.57204345 93.71762085 165.73236084 C94.43038802 167.79521462 95.14266146 169.85823907 95.85440063 171.92144775 C97.65767811 177.14320893 99.47648186 182.35892862 101.31787109 187.56738281 C101.69131149 188.62780792 102.06475189 189.68823303 102.44950867 190.78079224 C103.1617317 192.80128692 103.87770119 194.82046612 104.59797668 196.83810425 C105.07191109 198.18498825 105.07191109 198.18498825 105.55541992 199.55908203 C105.83528244 200.34703156 106.11514496 201.13498108 106.40348816 201.94680786 C107 204 107 204 107 207 C107.66 207 108.32 207 109 207 C109.12780853 206.29001862 109.25561707 205.58003723 109.38729858 204.84854126 C110.01143693 201.946828 110.85062314 199.23381926 111.80322266 196.42333984 C112.17575165 195.31954987 112.54828064 194.21575989 112.93209839 193.07852173 C113.33864655 191.88471893 113.7451947 190.69091614 114.1640625 189.4609375 C114.59244076 188.19631501 115.02058712 186.93161394 115.44851685 185.6668396 C116.59776159 182.27327479 117.75120429 178.88115109 118.90568542 175.48936462 C119.6274002 173.36794481 120.3478986 171.24611579 121.06799316 169.12414551 C127.17693846 151.12359028 133.34710484 133.14579181 139.6416626 115.20916748 C144.68531198 100.83647127 149.61218333 86.42639399 154.5 72 C159.76247263 56.47473673 165.05629182 40.96120383 170.44433594 25.47900391 C171.10101076 23.59195162 171.75678788 21.70458667 172.41162109 19.81689453 C173.31187171 17.22325992 174.21582217 14.63094822 175.12109375 12.0390625 C175.38486313 11.27800201 175.64863251 10.51694153 175.9203949 9.7328186 C177.10865632 6.34534069 178.38982004 3.22035992 180 0 C191.88 0 203.76 0 216 0 C214.65201967 6.06591149 213.23452547 11.63409146 211.15625 17.421875 C210.87535522 18.21865662 210.59446045 19.01543823 210.30505371 19.83636475 C209.69506179 21.56589025 209.08288637 23.29464689 208.46875 25.02270508 C206.76908279 29.80773089 205.08783891 34.5992218 203.40625 39.390625 C202.87088623 40.91490112 202.87088623 40.91490112 202.32470703 42.4699707 C198.12653604 54.4494115 194.06562866 66.47508663 190 78.5 C184.30962602 95.31855799 178.5483055 112.10871024 172.66769409 128.86166382 C166.19728175 147.30582268 159.93122827 165.81832752 153.69555664 184.34301758 C150.09632069 195.01755767 146.45292867 205.67200394 142.62109375 216.265625 C142.29955826 217.15836624 141.97802277 218.05110748 141.64674377 218.97090149 C137.36914481 230.68619698 132.78322399 239.61309194 121.5625 245.9375 C112.98542149 248.67740008 101.27910252 248.17817862 92.859375 245.046875 C83.33436045 239.68405168 79.22711063 230.21333104 75.7109375 220.37890625 C75.41074707 219.55132812 75.11055664 218.72375 74.80126953 217.87109375 C71.73309587 209.36163089 68.81590431 200.80078279 65.92236328 192.23068237 C64.28811748 187.39245182 62.6443614 182.55745662 61 177.72265625 C60.66363525 176.7335878 60.32727051 175.74451935 59.98071289 174.72547913 C56.70602201 165.11111112 53.35895574 155.5226831 50 145.9375 C42.98242292 125.90214717 36.08943655 105.8246584 29.20697021 85.74261475 C27.73337206 81.44287662 26.25947058 77.14324262 24.78515625 72.84375 C24.54300636 72.13756657 24.30085648 71.43138313 24.05136871 70.7038002 C20.57123637 60.55687531 17.0734591 50.41619437 13.55859375 40.28125 C13.1353331 39.06054306 12.71207245 37.83983612 12.27598572 36.58213806 C10.29316188 30.86570917 8.30769619 25.15021144 6.3190918 19.43579102 C5.62155702 17.42725478 4.92404578 15.41871037 4.2265625 13.41015625 C3.91105942 12.50620117 3.59555634 11.60224609 3.27049255 10.67089844 C2.98352005 9.84372314 2.69654755 9.01654785 2.40087891 8.16430664 C2.15270416 7.4515004 1.90452942 6.73869415 1.64883423 6.00428772 C1.00960024 4.0296557 0.50338803 2.01355213 0 0 Z " fill="#C39C02" transform="translate(465,0)"/>
<path d="M0 0 C1.14277405 -0.00043808 2.2855481 -0.00087616 3.46295166 -0.00132751 C7.20179951 0.00074544 10.94018655 0.02400619 14.67895508 0.04760742 C17.28639989 0.05320867 19.89384788 0.05747627 22.501297 0.06047058 C28.63859577 0.06974922 34.77573186 0.09430547 40.9129594 0.12451905 C47.9070124 0.15819433 54.90107368 0.17458186 61.89518774 0.18960536 C76.26722192 0.22085949 90.63906497 0.27581834 105.01098633 0.34057617 C105.01098633 8.26057617 105.01098633 16.18057617 105.01098633 24.34057617 C102.04098633 24.34057617 99.07098633 24.34057617 96.01098633 24.34057617 C96.01098633 25.00057617 96.01098633 25.66057617 96.01098633 26.34057617 C94.77514801 26.34866302 93.53930969 26.35674988 92.26602173 26.36508179 C80.64079649 26.4424399 69.01568979 26.53015269 57.39061928 26.62810326 C51.4135128 26.67812967 45.43642456 26.72445901 39.45922852 26.76245117 C33.69497948 26.79922397 27.93088065 26.84556177 22.16675949 26.89863968 C19.96348063 26.91722632 17.76016952 26.93231834 15.5568428 26.94392014 C12.47971337 26.96070971 9.40293115 26.98972669 6.32592773 27.02172852 C5.40739517 27.0238887 4.48886261 27.02604889 3.54249573 27.02827454 C2.70674515 27.03943802 1.87099457 27.0506015 1.00991821 27.06210327 C-0.08240647 27.07039941 -0.08240647 27.07039941 -1.19679832 27.07886314 C-3.24201634 27.19523715 -3.24201634 27.19523715 -4.98901367 29.34057617 C-5.20636536 31.92843084 -5.30040189 34.41255659 -5.30786133 37.00317383 C-5.32292976 38.18867073 -5.32292976 38.18867073 -5.33830261 39.39811707 C-5.36925501 42.01695003 -5.386203 44.63568022 -5.40307617 47.25463867 C-5.42177815 49.0678293 -5.44135082 50.88101115 -5.46176147 52.69418335 C-5.51319132 57.4715457 -5.5527588 62.2489363 -5.58990479 67.02642822 C-5.62987658 71.89944509 -5.68099996 76.77234335 -5.73120117 81.64526367 C-5.82808886 91.21028464 -5.91245238 100.77537243 -5.98901367 110.34057617 C-4.44045433 110.33724525 -4.44045433 110.33724525 -2.86061096 110.33384705 C6.89338758 110.31352931 16.6473818 110.29856254 26.40139675 110.288764 C31.4153933 110.28355706 36.4293727 110.27649934 41.44335938 110.26513672 C46.28684214 110.25422983 51.13030846 110.24828286 55.97380257 110.24569893 C57.81685711 110.2438587 59.6599108 110.2402653 61.5029583 110.23484612 C64.09476506 110.22753202 66.68650481 110.22658957 69.27832031 110.22705078 C70.03142487 110.22345551 70.78452942 110.21986023 71.56045532 110.21615601 C76.84395612 110.22625533 81.68613549 110.74892608 87.01098633 111.34057617 C87.01098633 119.26057617 87.01098633 127.18057617 87.01098633 135.34057617 C80.97298839 136.01146483 75.3009043 136.48282019 69.27832031 136.45410156 C68.4446119 136.4542221 67.61090349 136.45434263 66.75193119 136.45446682 C64.08695246 136.45372795 61.42204608 136.44614712 58.75708008 136.43823242 C57.09826694 136.43675982 55.43945334 136.43574107 53.78063965 136.43518066 C47.66991473 136.42996469 41.5591998 136.41600345 35.44848633 136.40307617 C21.77411133 136.38245117 8.09973633 136.36182617 -5.98901367 136.34057617 C-5.98901367 172.64057617 -5.98901367 208.94057617 -5.98901367 246.34057617 C-17.86901367 246.34057617 -29.74901367 246.34057617 -41.98901367 246.34057617 C-42.05850438 218.23728347 -42.11202002 190.13401151 -42.14445019 162.03065014 C-42.15990929 148.98134115 -42.18098061 135.93208657 -42.21533203 122.8828125 C-42.24526357 111.50710825 -42.26459563 100.13144342 -42.27127916 88.75570089 C-42.27518502 82.73412496 -42.28434462 76.71266179 -42.30620384 70.69112206 C-42.3266282 65.01866418 -42.33283541 59.34636506 -42.32833672 53.6738739 C-42.32915925 51.59667408 -42.33508926 49.51946872 -42.3466301 47.4423008 C-42.48485695 21.27086151 -42.48485695 21.27086151 -33.99682617 11.34448242 C-24.43193725 1.79820223 -13.08289057 -0.13381826 0 0 Z " fill="#970000" transform="translate(346.989013671875,-0.340576171875)"/>
<path d="M0 0 C261.36 0 522.72 0 792 0 C792 3.3 792 6.6 792 10 C530.64 10 269.28 10 0 10 C0 6.7 0 3.4 0 0 Z " fill="#000000" transform="translate(0,396)"/>
<path d="M0 0 C261.36 0 522.72 0 792 0 C792 3.3 792 6.6 792 10 C530.64 10 269.28 10 0 10 C0 6.7 0 3.4 0 0 Z " fill="#000000" transform="translate(0,279)"/>
<path d="M0 0 C2.97 0 5.94 0 9 0 C7.75945161 5.99500166 6.22342488 11.66500547 4.15625 17.421875 C3.87535522 18.21865662 3.59446045 19.01543823 3.30505371 19.83636475 C2.69506179 21.56589025 2.08288637 23.29464689 1.46875 25.02270508 C-0.23091721 29.80773089 -1.91216109 34.5992218 -3.59375 39.390625 C-3.95065918 40.40680908 -4.30756836 41.42299316 -4.67529297 42.4699707 C-8.87346396 54.4494115 -12.93437134 66.47508663 -17 78.5 C-22.69037398 95.31855799 -28.4516945 112.10871024 -34.33230591 128.86166382 C-40.80271825 147.30582268 -47.06877173 165.81832752 -53.30444336 184.34301758 C-56.90367931 195.01755767 -60.54707133 205.67200394 -64.37890625 216.265625 C-64.70044174 217.15836624 -65.02197723 218.05110748 -65.35325623 218.97090149 C-69.27353565 229.7075863 -73.48616165 239.37867529 -84.0078125 245.08984375 C-88.74355405 247.10485535 -92.89545713 247.27345765 -98 247 C-95.781954 245.29381077 -93.59116824 243.75470094 -91.1875 242.3125 C-79.53837886 233.86117682 -76.14822719 220.8362721 -71.69140625 207.734375 C-71.29233566 206.57188736 -70.89326508 205.40939972 -70.48210144 204.21168518 C-69.3982591 201.05223718 -68.31786835 197.8916497 -67.23899841 194.73050308 C-66.08768805 191.35995012 -64.93184672 187.99095166 -63.77636719 184.62182617 C-62.07852742 179.67017935 -60.38203144 174.71807596 -58.68714333 169.76541805 C-55.57598524 160.67485944 -52.45275213 151.58849803 -49.32421875 142.50390625 C-48.39147472 139.79493753 -47.45879176 137.08594778 -46.52612305 134.37695312 C-46.29659722 133.71028437 -46.0670714 133.04361561 -45.83059025 132.35674477 C-38.06415962 109.79741521 -30.34764067 87.22193927 -22.69116211 64.625 C-17.91035068 50.522338 -13.0170302 36.4697379 -7.95703125 22.46484375 C-5.80937312 16.50852066 -3.79395234 10.51445809 -1.83984375 4.4921875 C-1 2 -1 2 0 0 Z " fill="#020100" transform="translate(672,0)"/>
<path d="M0 0 C2.97 0 5.94 0 9 0 C11.82578239 6.8845901 14.39589929 13.82417992 16.80859375 20.86328125 C17.34656334 22.42304939 17.34656334 22.42304939 17.895401 24.014328 C19.07843624 27.44625245 20.25796761 30.87937024 21.4375 34.3125 C22.27972734 36.75788848 23.12218004 39.20319936 23.96484375 41.6484375 C25.96791991 47.46269745 27.96880874 53.27770567 29.96853447 59.09311867 C32.39521413 66.14993078 34.82451286 73.20584051 37.25390625 80.26171875 C38.12803076 82.80061171 39.00213157 85.33951283 39.8762207 87.87841797 C40.20070899 88.82092596 40.20070899 88.82092596 40.53175259 89.78247452 C42.06605103 94.23913387 43.59987191 98.69595742 45.13354492 103.15283203 C51.16114212 120.66827118 57.2007095 138.17953933 63.25 155.6875 C63.63051514 156.78884277 64.01103027 157.89018555 64.40307617 159.02490234 C65.14260493 161.16519316 65.88242747 163.3053825 66.62255859 165.44546509 C67.33576283 167.51053054 68.04706594 169.57625368 68.75634766 171.64266968 C70.64985878 177.14938636 72.58734552 182.63624337 74.58007812 188.10791016 C75.00262878 189.28408401 75.42517944 190.46025787 75.86053467 191.67207336 C76.67218884 193.92891505 77.49581005 196.18150126 78.33331299 198.42887878 C81.53819518 207.4052529 81.01686315 212.44233502 77 221 C74.10010453 218.10010453 73.31462862 214.5069319 72.05078125 210.69140625 C71.76168381 209.83518173 71.47258636 208.97895721 71.17472839 208.0967865 C70.54642908 206.23431482 69.92075231 204.37095688 69.29736328 202.50683594 C67.61274071 197.47050767 65.90865988 192.44075861 64.20703125 187.41015625 C63.85685944 186.37327667 63.50668762 185.33639709 63.14590454 184.26809692 C59.66901651 173.98678078 56.09166525 163.74165878 52.5 153.5 C47.10750218 138.10663279 41.80795684 122.68379167 36.5625 107.23974609 C31.94061798 93.63648812 27.24786226 80.05977663 22.5 66.5 C17.1251901 51.14609309 11.81583007 35.77091051 6.5625 20.375 C6.22895508 19.39909912 5.89541016 18.42319824 5.55175781 17.41772461 C4.6173896 14.68272192 3.68521439 11.94698348 2.75390625 9.2109375 C2.47345963 8.39027802 2.193013 7.56961853 1.90406799 6.72409058 C0 1.11535823 0 1.11535823 0 0 Z " fill="#010000" transform="translate(492,0)"/>
<path d="M0 0 C3.3 0 6.6 0 10 0 C10 36.3 10 72.6 10 110 C6.7 110 3.4 110 0 110 C0 73.7 0 37.4 0 0 Z " fill="#000000" transform="translate(331,136)"/>
<path d="M0 0 C-0.48608231 0.497276 -0.97216461 0.994552 -1.47297668 1.50689697 C-3.55787174 4.91081236 -3.43985601 8.01528675 -3.43237305 11.88964844 C-3.4425647 12.68027176 -3.45275635 13.47089508 -3.46325684 14.28547668 C-3.49340254 16.89351473 -3.50265505 19.50118557 -3.51171875 22.109375 C-3.52856429 23.91971051 -3.54671436 25.73003432 -3.56611633 27.54034424 C-3.61363609 32.30125267 -3.64343266 37.06211364 -3.66955566 41.82318115 C-3.69935121 46.68299737 -3.745885 51.54265003 -3.79101562 56.40234375 C-3.87707121 65.93481032 -3.94440648 75.46731052 -4 85 C-7.3 85 -10.6 85 -14 85 C-14.09265338 74.76884005 -14.1637413 64.5377798 -14.20724869 54.30628586 C-14.22812944 49.55543964 -14.2564559 44.80488031 -14.30175781 40.05419922 C-14.3451983 35.47006661 -14.36913343 30.88621006 -14.37950897 26.30188751 C-14.38690359 24.55234684 -14.40134355 22.80282138 -14.42292023 21.05339813 C-14.45193101 18.60395075 -14.45595708 16.15564605 -14.45410156 13.70605469 C-14.46848267 12.98172745 -14.48286377 12.25740021 -14.49768066 11.51112366 C-14.46947626 8.07336288 -14.25882803 6.32550024 -12.08880615 3.59649658 C-7.91524011 0.40659602 -5.31223619 -0.24146528 0 0 Z " fill="#000000" transform="translate(345,25)"/>
<path d="M0 0 C1.98 0 3.96 0 6 0 C6 15.18 6 30.36 6 46 C4.02 46 2.04 46 0 46 C-0.33 45.34 -0.66 44.68 -1 44 C-1.53625 44.495 -2.0725 44.99 -2.625 45.5 C-5.71852796 47.45380713 -7.39369166 47.51518691 -11 47 C-15.01486483 44.53633294 -16.5939482 42.42968533 -18 38 C-18.84803246 29.7464748 -18.69171715 22.9705512 -14 16 C-9.94641576 13.29761051 -7.81689896 13.77062386 -3 14 C-2.34 14.33 -1.68 14.66 -1 15 C-0.67 10.05 -0.34 5.1 0 0 Z M-10.21875 21.08984375 C-12.32408646 24.52948336 -12.53713176 26.55691146 -12.5 30.5625 C-12.5103125 31.67753906 -12.520625 32.79257812 -12.53125 33.94140625 C-11.89805906 37.58690999 -10.93196959 38.80505763 -8 41 C-5.23366887 40.93252851 -3.66526686 40.44617657 -1.375 38.91015625 C0.73084073 35.98471274 0.47383008 32.9678708 0.4375 29.5 C0.45748047 28.82324219 0.47746094 28.14648438 0.49804688 27.44921875 C0.49488513 24.24320678 0.40961911 22.45373194 -1.77734375 20.03125 C-5.38986828 18.3551402 -7.30399818 18.34443491 -10.21875 21.08984375 Z " fill="#000000" transform="translate(299,317)"/>
<path d="M0 0 C1.98 0 3.96 0 6 0 C6 15.18 6 30.36 6 46 C4.02 46 2.04 46 0 46 C-0.33 45.34 -0.66 44.68 -1 44 C-1.495 44.515625 -1.99 45.03125 -2.5 45.5625 C-5.52923064 47.30430762 -7.68377205 47.22304794 -11.09765625 46.64453125 C-14.19491066 45.59515347 -15.39658363 43.75787615 -17 41 C-18.96837805 34.89670698 -19.13831165 26.98375907 -16.75 21 C-13.75092937 15.85873606 -13.75092937 15.85873606 -11 14 C-7.52290438 13.51610995 -4.20432969 13.39783515 -1 15 C-0.67 10.05 -0.34 5.1 0 0 Z M-9.6875 20.3125 C-12.16579818 23.49888337 -12.16113416 26.55117575 -12.1875 30.4375 C-12.20167969 31.38496094 -12.21585938 32.33242188 -12.23046875 33.30859375 C-11.99284305 36.08357862 -11.5274032 37.68782757 -10 40 C-7.69628579 41.17778312 -7.69628579 41.17778312 -5 41 C-2.22450882 39.55281459 -2.22450882 39.55281459 0 37 C0.75461265 33.38109633 0.75461265 33.38109633 0.5625 29.4375 C0.57345703 28.76525391 0.58441406 28.09300781 0.59570312 27.40039062 C0.54827584 24.2164388 0.38959436 22.42880954 -1.78515625 20.03515625 C-4.74477859 18.65191124 -6.99625158 18.21930678 -9.6875 20.3125 Z " fill="#000000" transform="translate(554,317)"/>
<path d="M0 0 C1.98 0 3.96 0 6 0 C6.01981934 0.9787207 6.03963867 1.95744141 6.06005859 2.96582031 C6.13624624 6.60393597 6.22494295 10.24165853 6.31738281 13.87939453 C6.35561829 15.45255765 6.39048066 17.02580658 6.421875 18.59912109 C6.46764422 20.86326723 6.52561761 23.12682547 6.5859375 25.390625 C6.59748871 26.09181458 6.60903992 26.79300415 6.62094116 27.51544189 C6.72904837 31.10845859 6.84477941 34.03577363 9 37 C11.8596006 38.17110449 11.8596006 38.17110449 15 38 C17.31887681 36.54594033 17.31887681 36.54594033 19 34 C19.41792995 31.26289523 19.60472211 28.91013895 19.609375 26.171875 C19.62591125 25.42286926 19.64244751 24.67386353 19.65948486 23.90216064 C19.7079351 21.51802346 19.72932772 19.13452389 19.75 16.75 C19.7781624 15.13017631 19.80809022 13.51038228 19.83984375 11.890625 C19.91369244 7.92713586 19.96328457 3.96400002 20 0 C21.98 0 23.96 0 26 0 C26.04992909 4.10762763 26.08596646 8.21513448 26.10986328 12.32299805 C26.1198393 13.71658409 26.13342501 15.11014966 26.15087891 16.50366211 C26.38961165 36.07272573 26.38961165 36.07272573 21.5 42.0625 C17.38424854 44.98498691 12.82203048 44.71766006 8 44 C4.14060915 42.60405012 3.27932186 41.53997145 1.3894043 37.88647461 C-0.23352076 33.91742631 -0.38585679 30.12369312 -0.29296875 25.87890625 C-0.28660149 24.76176491 -0.28660149 24.76176491 -0.28010559 23.62205505 C-0.26345724 21.26848527 -0.22583375 18.91580621 -0.1875 16.5625 C-0.17243515 14.95639267 -0.15874991 13.35027177 -0.14648438 11.74414062 C-0.11359952 7.82908953 -0.06191626 3.91469521 0 0 Z " fill="#000000" transform="translate(41,320)"/>
<path d="M0 0 C1.65 0 3.3 0 5 0 C5 15.18 5 30.36 5 46 C3.35 46 1.7 46 0 46 C-0.33 45.34 -0.66 44.68 -1 44 C-1.53625 44.495 -2.0725 44.99 -2.625 45.5 C-5.71852796 47.45380713 -7.39369166 47.51518691 -11 47 C-14.48635623 44.78140967 -16.54340143 42.85004028 -18 39 C-18.82567494 30.96922477 -19.35269851 23.02186497 -14.2890625 16.28515625 C-12.62607085 14.62720397 -11.47405356 14.03357879 -9.125 13.8671875 C-8.42375 13.86976563 -7.7225 13.87234375 -7 13.875 C-5.948125 13.87113281 -5.948125 13.87113281 -4.875 13.8671875 C-3 14 -3 14 -1 15 C-0.67 10.05 -0.34 5.1 0 0 Z M-10.62890625 21.12109375 C-12.23610371 24.49575052 -12.40089026 26.83861739 -12.375 30.5625 C-12.38273437 31.67753906 -12.39046875 32.79257812 -12.3984375 33.94140625 C-11.97023945 37.22845597 -11.21943143 38.59855171 -9 41 C-6.02886674 40.66987408 -4.27095541 40.20321656 -1.859375 38.39453125 C0.65569717 35.15558327 0.53416203 32.99851089 0.5 28.9375 C0.5103125 27.70902344 0.520625 26.48054688 0.53125 25.21484375 C0.30831172 21.94840937 0.30831172 21.94840937 -1.87109375 20.09765625 C-5.5166131 18.21803985 -7.98196842 17.67436176 -10.62890625 21.12109375 Z " fill="#000000" transform="translate(423,317)"/>
<path d="M0 0 C1.65 0 3.3 0 5 0 C5 15.18 5 30.36 5 46 C3.35 46 1.7 46 0 46 C-0.33 45.34 -0.66 44.68 -1 44 C-1.680625 44.515625 -2.36125 45.03125 -3.0625 45.5625 C-6.90525323 47.44299626 -8.91132242 47.11509388 -13 46 C-15.86942113 43.73466753 -16.83907612 42.48277163 -18 39 C-18.1484944 36.38135839 -18.2310027 33.8067523 -18.25 31.1875 C-18.270625 30.48818359 -18.29125 29.78886719 -18.3125 29.06835938 C-18.35488049 23.4052667 -17.11700151 19.3522239 -13.3125 15.125 C-9.77132093 13.40226424 -6.92021557 13.74708287 -3 14 C-2.34 14.33 -1.68 14.66 -1 15 C-0.67 10.05 -0.34 5.1 0 0 Z M-10.59765625 20.7265625 C-13.24921192 25.02518478 -13.59413751 30.26991359 -12.52734375 35.171875 C-11.50986116 37.86292184 -10.62712474 39.65609289 -8.0625 41.0625 C-5.49504777 40.98469842 -4.13435513 40.42290342 -2 39 C0.43740186 35.34389722 0.32964831 33.35376184 0.375 29 C0.40335938 27.7625 0.43171875 26.525 0.4609375 25.25 C0.31956322 21.95129289 0.31956322 21.95129289 -1.86328125 20.08984375 C-5.25966263 18.35750297 -7.85713739 17.76492599 -10.59765625 20.7265625 Z " fill="#000000" transform="translate(243,317)"/>
<path d="M0 0 C1.98 0 3.96 0 6 0 C9.3 10.23 12.6 20.46 16 31 C18.9203751 21.17303626 18.9203751 21.17303626 21.83374023 11.34399414 C22.19669189 10.12832764 22.55964355 8.91266113 22.93359375 7.66015625 C23.30540771 6.40855713 23.67722168 5.15695801 24.06030273 3.86743164 C25 1 25 1 26 0 C27.66617115 -0.04063832 29.33388095 -0.042721 31 0 C29.19884335 9.01613473 26.49556607 17.75889337 23.875 26.5625 C23.40206576 28.15942291 22.92940714 29.75642747 22.45703125 31.35351562 C21.30786527 35.23662644 20.15496701 39.11861085 19 43 C17.02 43 15.04 43 13 43 C11.01862699 37.81404656 9.17787684 32.62151645 7.51953125 27.32421875 C7.19295784 26.28646049 7.19295784 26.28646049 6.85978699 25.22773743 C6.40575583 23.78199509 5.95291008 22.33587998 5.5012207 20.8894043 C4.80830641 18.67409269 4.10840169 16.46106538 3.40820312 14.24804688 C2.96571992 12.8360709 2.52364769 11.42396606 2.08203125 10.01171875 C1.87270462 9.3523381 1.66337799 8.69295746 1.44770813 8.01359558 C0.58051605 5.21610641 0 2.95000596 0 0 Z " fill="#000000" transform="translate(606,320)"/>
<path d="M0 0 C4.35308527 2.25032374 6.52337815 5.40309578 8 10 C8.86643549 17.30425271 8.59444433 24.00920494 4 30 C1.0897401 32.51698153 -0.61633731 32.9511702 -4.4375 33.4375 C-8.774191 32.90492391 -10.73460574 31.89432673 -14 29 C-17.72101262 23.04637981 -17.69861597 16.88088877 -17 10 C-14.1872516 1.70979419 -8.52102546 -1.74020943 0 0 Z M-8.75 6.3125 C-12.07859085 10.80609765 -11.43523872 16.68386988 -11 22 C-9.7320237 25.16994075 -9.1124842 26.46170119 -6.0625 27.9375 C-3.41088962 28.01785183 -2.17112973 27.51979081 0 26 C2.92312735 21.36044556 2.5337102 16.29785862 2 11 C0.82755696 8.45121078 -0.06297378 6.93702622 -2 5 C-4.86264617 4.69866882 -6.4047729 4.55357968 -8.75 6.3125 Z " fill="#000000" transform="translate(694,331)"/>
<path d="M0 0 C1.98 0 3.96 0 6 0 C6.33 0.99 6.66 1.98 7 3 C7.33 2.505 7.66 2.01 8 1.5 C10.56294608 -0.42220956 12.82385724 -0.44850207 15.96484375 -0.59375 C19.16245211 0.3391415 20.19285035 2.27334581 22 5 C22.45410156 8.04614258 22.45410156 8.04614258 22.390625 11.39453125 C22.37128906 13.19760742 22.37128906 13.19760742 22.3515625 15.03710938 C22.31804687 16.28298828 22.28453125 17.52886719 22.25 18.8125 C22.23195313 20.07771484 22.21390625 21.34292969 22.1953125 22.64648438 C22.14823916 25.76509335 22.08249094 28.88215973 22 32 C20.02 32 18.04 32 16 32 C15.67 23.75 15.34 15.5 15 7 C14.34 6.67 13.68 6.34 13 6 C9.76643985 7.21258505 8.99143695 8.01284458 7 11 C6.63423946 13.31923274 6.63423946 13.31923274 6.5859375 15.88671875 C6.54726562 16.82451172 6.50859375 17.76230469 6.46875 18.72851562 C6.4378125 19.70498047 6.406875 20.68144531 6.375 21.6875 C6.33632812 22.67556641 6.29765625 23.66363281 6.2578125 24.68164062 C6.16354133 27.12090707 6.07793782 29.56016595 6 32 C4.02 32 2.04 32 0 32 C0 21.44 0 10.88 0 0 Z " fill="#000000" transform="translate(74,331)"/>
<path d="M0 0 C2.5625 1.625 2.5625 1.625 4 4 C5.05281348 8.92301514 5.30335706 13.862071 5.5625 18.875 C5.60568359 19.65875 5.64886719 20.4425 5.69335938 21.25 C5.79853351 23.16650649 5.89967925 25.08323333 6 27 C6.66 27.33 7.32 27.66 8 28 C7.67 29.65 7.34 31.3 7 33 C2.44615385 33.36923077 2.44615385 33.36923077 0.1875 31.5 C-0.4003125 30.7575 -0.4003125 30.7575 -1 30 C-1.515625 30.515625 -2.03125 31.03125 -2.5625 31.5625 C-6.04426568 33.61584899 -8.1631596 32.97665028 -12 32 C-13.875 30.875 -13.875 30.875 -15 29 C-16.11353666 24.37454001 -16.43416141 21.17284812 -14 17 C-10.54060671 13.12547952 -5.8851588 13.30271283 -1 13 C-1.66 10.69 -2.32 8.38 -3 6 C-6.3 6.33 -9.6 6.66 -13 7 C-13 5.35 -13 3.7 -13 2 C-8.76125356 -0.82583096 -4.97638457 -0.6526406 0 0 Z M-9 19 C-9.9934389 21.96003468 -9.9934389 21.96003468 -10 25 C-9.34 25.66 -8.68 26.32 -8 27 C-5.38419521 26.6730244 -3.35921863 26.17960932 -1 25 C-1 22.36 -1 19.72 -1 17 C-5.42822591 16.91550909 -5.42822591 16.91550909 -9 19 Z " fill="#000000" transform="translate(746,331)"/>
<path d="M0 0 C2.52365967 0.59830078 3.48472474 1.28141683 5.19140625 3.20703125 C8.5503765 8.77032572 8.19140625 11.80767784 8.19140625 18.51953125 C2.91140625 18.51953125 -2.36859375 18.51953125 -7.80859375 18.51953125 C-7.23109375 19.81890625 -6.65359375 21.11828125 -6.05859375 22.45703125 C-5.73375 23.18792969 -5.40890625 23.91882813 -5.07421875 24.671875 C-3.96182464 26.65526902 -3.96182464 26.65526902 -1.93359375 27.30078125 C0.31082198 27.53182405 2.21245657 27.4163737 4.44140625 27.08203125 C5.67890625 26.89640625 6.91640625 26.71078125 8.19140625 26.51953125 C8.19140625 28.16953125 8.19140625 29.81953125 8.19140625 31.51953125 C3.10286973 33.73761127 -1.52969813 34.31058512 -6.80859375 32.51953125 C-10.55482404 29.53815631 -12.98415811 26.26899742 -13.80859375 21.51953125 C-14.48284357 13.77862465 -13.52206751 8.58974189 -9.18359375 2.08203125 C-6.05358025 0.02281184 -3.70397401 -0.16475667 0 0 Z M-4.80859375 5.51953125 C-7.06744699 8.77350633 -7.06744699 8.77350633 -7.80859375 12.51953125 C-4.50859375 12.51953125 -1.20859375 12.51953125 2.19140625 12.51953125 C1.86140625 10.53953125 1.53140625 8.55953125 1.19140625 6.51953125 C-1.77859375 6.02453125 -1.77859375 6.02453125 -4.80859375 5.51953125 Z " fill="#000000" transform="translate(391.80859375,330.48046875)"/>
<path d="M0 0 C3.38823957 2.40743338 4.93698716 5.01370183 6 9 C6.15263432 12.02215958 6.09045406 14.96978911 6 18 C0.72 18 -4.56 18 -10 18 C-7.9086508 24.87206406 -7.9086508 24.87206406 -4.25 26.5 C-0.58008984 27.06460156 2.37276214 26.72544757 6 26 C6 27.65 6 29.3 6 31 C1.85747753 33.00849574 -1.4150158 33.48262992 -6 33 C-10.36937974 30.7312836 -13.14445238 28.59003886 -15 24 C-16.46360495 16.88619917 -16.47120779 10.51020293 -13 4 C-9.07224005 -0.60109023 -5.71719352 -0.72599283 0 0 Z M-7.75 6.1875 C-9.30113712 8.20969872 -9.30113712 8.20969872 -10 12 C-6.7 12 -3.4 12 0 12 C-0.33 10.02 -0.66 8.04 -1 6 C-4.52202236 4.83351037 -4.52202236 4.83351037 -7.75 6.1875 Z " fill="#000000" transform="translate(156,331)"/>
<path d="M0 0 C0.9590625 -0.01675781 1.918125 -0.03351563 2.90625 -0.05078125 C5.5 0.3125 5.5 0.3125 7.28125 1.58203125 C9.53073055 4.77600524 9.64509295 8.26028572 9.81640625 12.078125 C9.85830078 12.96757812 9.90019531 13.85703125 9.94335938 14.7734375 C9.98267578 15.69382812 10.02199219 16.61421875 10.0625 17.5625 C10.10568359 18.49835938 10.14886719 19.43421875 10.19335938 20.3984375 C10.2991805 22.70298641 10.40126557 25.00763839 10.5 27.3125 C11.16 27.6425 11.82 27.9725 12.5 28.3125 C12.17 29.9625 11.84 31.6125 11.5 33.3125 C6.94615385 33.68173077 6.94615385 33.68173077 4.6875 31.8125 C4.0996875 31.07 4.0996875 31.07 3.5 30.3125 C2.984375 30.828125 2.46875 31.34375 1.9375 31.875 C-1.54426568 33.92834899 -3.6631596 33.28915028 -7.5 32.3125 C-9.73202972 30.65530856 -10.41023665 29.75383649 -10.96875 27.0078125 C-11.02223842 22.60839002 -10.96058213 20.04051691 -8.5625 16.25 C-4.56990876 13.72407493 -1.15240805 13.42399562 3.5 13.3125 C2.84 11.0025 2.18 8.6925 1.5 6.3125 C-1.8 6.6425 -5.1 6.9725 -8.5 7.3125 C-8.5 5.6625 -8.5 4.0125 -8.5 2.3125 C-5.16602694 0.08985129 -3.90485109 0.01574537 0 0 Z M-5.5 21.3125 C-5.17 22.9625 -4.84 24.6125 -4.5 26.3125 C-2.14632287 27.0003236 -2.14632287 27.0003236 0.5 27.3125 C1.49 26.6525 2.48 25.9925 3.5 25.3125 C3.86297936 23.33502878 3.86297936 23.33502878 3.6875 21.1875 C3.625625 19.90875 3.56375 18.63 3.5 17.3125 C-1.18091299 17.3125 -2.12101604 18.30895871 -5.5 21.3125 Z " fill="#000000" transform="translate(491.5,330.6875)"/>
<path d="M0 0 C3.21954645 2.53453657 4.70432435 4.11297305 6 8 C6.13143471 11.33844165 6.04340976 14.65744868 6 18 C1.05 18 -3.9 18 -9 18 C-7.38704419 23.01199801 -7.38704419 23.01199801 -3.75 26.5 C-0.28792294 27.12946856 2.56618353 26.67329735 6 26 C6 27.65 6 29.3 6 31 C1.35570102 33.54687363 -3.00759796 33.41345684 -8 32 C-11.31246175 29.39231734 -13.45445197 26.90099023 -15 23 C-15.82376275 15.13593932 -16.04252336 8.33917223 -11 2 C-7.32705125 -0.4486325 -4.26731035 -0.83183438 0 0 Z M-6 5 C-8.58777208 8.05580974 -8.58777208 8.05580974 -9 12 C-5.7 12 -2.4 12 1 12 C0.34 10.02 -0.32 8.04 -1 6 C-2.65 5.67 -4.3 5.34 -6 5 Z " fill="#000000" transform="translate(450,331)"/>
<path d="M0 0 C2.82380847 1.66532294 3.67763502 3.00122757 4.67578125 6.09375 C5.69041621 10.2351172 6 13.67855984 6 18 C0.72 18 -4.56 18 -10 18 C-7.87858068 24.71017459 -7.87858068 24.71017459 -4.75 26.5 C-1.28792294 27.12946856 1.56618353 26.67329735 5 26 C5 27.65 5 29.3 5 31 C1.01555956 33.18501572 -2.37645841 33.34120512 -6.77734375 32.74609375 C-10.71586116 31.42402552 -12.88493732 28.45963824 -15 25 C-17.09354136 18.71937593 -17.07879425 11.38933346 -14.1875 5.375 C-10.92880582 -0.54308827 -6.19250524 -0.86380961 0 0 Z M-7 5 C-9.41847197 7.50484597 -10 8.46013806 -10 12 C-6.7 12 -3.4 12 0 12 C-0.57452746 8.06924356 -0.57452746 8.06924356 -3 5 C-4.32 5 -5.64 5 -7 5 Z " fill="#000000" transform="translate(582,331)"/>
<path d="M0 0 C3.95352855 3.14254833 4.77227258 7.06881024 5.80078125 11.81640625 C6 14 6 14 5 18 C0.05 18 -4.9 18 -10 18 C-8.38704419 23.01199801 -8.38704419 23.01199801 -4.75 26.5 C-1.28792294 27.12946856 1.56618353 26.67329735 5 26 C5 27.65 5 29.3 5 31 C1.01555956 33.18501572 -2.37645841 33.34120512 -6.77734375 32.74609375 C-10.71586116 31.42402552 -12.88493732 28.45963824 -15 25 C-17.09354136 18.71937593 -17.07879425 11.38933346 -14.1875 5.375 C-10.97230913 -0.46408227 -6.15344402 -1.04786909 0 0 Z M-7 5 C-9.41847197 7.50484597 -10 8.46013806 -10 12 C-6.7 12 -3.4 12 0 12 C-0.57452746 8.06924356 -0.57452746 8.06924356 -3 5 C-4.32 5 -5.64 5 -7 5 Z " fill="#000000" transform="translate(327,331)"/>
<path d="M0 0 C0.85464844 -0.02835937 1.70929688 -0.05671875 2.58984375 -0.0859375 C5.0625 0.375 5.0625 0.375 7.3359375 1.76953125 C9.9941659 5.78093022 9.69974469 9.7235519 9.75 14.4375 C9.79211924 16.24096938 9.83755017 18.04436529 9.88671875 19.84765625 C9.89791748 20.64437744 9.90911621 21.44109863 9.9206543 22.26196289 C9.98618307 24.56601033 9.98618307 24.56601033 11.0625 27.375 C11.7225 27.705 12.3825 28.035 13.0625 28.375 C12.7325 30.025 12.4025 31.675 12.0625 33.375 C7.50865385 33.74423077 7.50865385 33.74423077 5.25 31.875 C4.6621875 31.1325 4.6621875 31.1325 4.0625 30.375 C3.36125 30.890625 2.66 31.40625 1.9375 31.9375 C-1.60956143 33.71103072 -3.1869556 33.51647004 -6.9375 32.375 C-9.79508077 30.60132918 -9.94893636 29.32749512 -10.75 26 C-10.98472804 21.46192456 -10.40186996 19.01509436 -7.375 15.625 C-3.72320141 13.75228277 0.00824205 13.62622539 4.0625 13.375 C3.4025 11.065 2.7425 8.755 2.0625 6.375 C-1.2375 6.705 -4.5375 7.035 -7.9375 7.375 C-7.9375 5.725 -7.9375 4.075 -7.9375 2.375 C-4.7524857 0.25165713 -3.69293693 0.05553289 0 0 Z M-3.9375 19.375 C-4.9309389 22.33503468 -4.9309389 22.33503468 -4.9375 25.375 C-4.2775 26.035 -3.6175 26.695 -2.9375 27.375 C-0.32169521 27.0480244 1.70328137 26.55460932 4.0625 25.375 C4.0625 22.735 4.0625 20.095 4.0625 17.375 C-0.36572591 17.29050909 -0.36572591 17.29050909 -3.9375 19.375 Z " fill="#000000" transform="translate(264.9375,330.625)"/>
<path d="M0 0 C6.93 0 13.86 0 21 0 C21 1.98 21 3.96 21 6 C16.05 6 11.1 6 6 6 C6 10.29 6 14.58 6 19 C9.96 19 13.92 19 18 19 C18 20.65 18 22.3 18 24 C14.04 24 10.08 24 6 24 C6 30.27 6 36.54 6 43 C4.02 43 2.04 43 0 43 C0 28.81 0 14.62 0 0 Z " fill="#000000" transform="translate(354,320)"/>
<path d="M0 0 C1.06605469 0.01546875 2.13210938 0.0309375 3.23046875 0.046875 C5.8125 0.25 5.8125 0.25 6.8125 1.25 C6.85313832 2.91617115 6.855221 4.58388095 6.8125 6.25 C6.19761719 6.21519531 5.58273437 6.18039062 4.94921875 6.14453125 C4.14097656 6.11746094 3.33273437 6.09039062 2.5 6.0625 C1.69949219 6.02769531 0.89898438 5.99289062 0.07421875 5.95703125 C-2.70377459 6.31687495 -3.48177215 7.08241353 -5.1875 9.25 C-7.03526992 12.94553985 -6.52379672 17.20809416 -6.1875 21.25 C-5.37566067 24.41788784 -5.37566067 24.41788784 -3.1875 26.25 C0.59863423 26.65565724 3.20326038 26.45307987 6.8125 25.25 C6.8125 27.23 6.8125 29.21 6.8125 31.25 C3.8425 32.735 3.8425 32.735 0.8125 34.25 C1.555 34.8378125 1.555 34.8378125 2.3125 35.4375 C3.8125 37.25 3.8125 37.25 4.125 39.8125 C3.8125 42.25 3.8125 42.25 1.8125 44.25 C-1.8125 44.375 -1.8125 44.375 -5.1875 44.25 C-4.875 42.3125 -4.875 42.3125 -4.1875 40.25 C-2.7025 39.755 -2.7025 39.755 -1.1875 39.25 C-2.5075 38.26 -3.8275 37.27 -5.1875 36.25 C-4.8575 35.26 -4.5275 34.27 -4.1875 33.25 C-5.115625 32.71375 -6.04375 32.1775 -7 31.625 C-10.57218432 28.96337247 -11.5423529 27.33617657 -13.1875 23.25 C-13.5859375 19.8125 -13.5859375 19.8125 -13.5625 16.25 C-13.57023438 15.074375 -13.57796875 13.89875 -13.5859375 12.6875 C-13.04441441 8.01553607 -11.67003416 4.78077279 -8.38671875 1.390625 C-5.46853446 -0.12289154 -3.27051165 -0.07967142 0 0 Z " fill="#000000" transform="translate(666.1875,330.75)"/>
<path d="M0 0 C1.65 0 3.3 0 5 0 C6.00736628 2.93502595 7.00460504 5.87339461 8 8.8125 C8.28617188 9.64587891 8.57234375 10.47925781 8.8671875 11.33789062 C9.13789062 12.14033203 9.40859375 12.94277344 9.6875 13.76953125 C9.93886719 14.50792236 10.19023438 15.24631348 10.44921875 16.00708008 C11 18 11 18 11 21 C11.66 21 12.32 21 13 21 C13.37125 19.14375 13.37125 19.14375 13.75 17.25 C15.04818352 11.35173142 17.01439968 5.69655237 19 0 C20.65 0 22.3 0 24 0 C23.36421098 6.95331168 21.11194343 13.33154837 18.9375 19.9375 C18.56044922 21.09830078 18.18339844 22.25910156 17.79492188 23.45507812 C16.86837476 26.30509014 15.93660127 29.15327951 15 32 C13.02 32 11.04 32 9 32 C6.67108591 25.98538702 4.66805481 19.92601948 2.8125 13.75 C2.53986328 12.86570312 2.26722656 11.98140625 1.98632812 11.0703125 C1.72916016 10.21695312 1.47199219 9.36359375 1.20703125 8.484375 C0.9747583 7.71834961 0.74248535 6.95232422 0.50317383 6.16308594 C0 4 0 4 0 0 Z " fill="#000000" transform="translate(114,331)"/>
<path d="M0 0 C1.50433594 0.01353516 1.50433594 0.01353516 3.0390625 0.02734375 C3.80992187 0.03894531 4.58078125 0.05054688 5.375 0.0625 C5.375 2.0425 5.375 4.0225 5.375 6.0625 C2.075 6.0625 -1.225 6.0625 -4.625 6.0625 C-3.96774837 8.9379759 -3.19183504 10.65058386 -0.78125 12.40234375 C0.63103681 13.24408716 2.05806673 14.06167994 3.5 14.8515625 C5.375 16.0625 5.375 16.0625 7.375 19.0625 C7.80740411 23.53067575 7.90938303 25.9704999 5.9375 30 C2.30028302 32.92751611 -1.02607156 33.24252923 -5.625 33.0625 C-8.6875 32.125 -8.6875 32.125 -10.625 31.0625 C-10.625 29.0825 -10.625 27.1025 -10.625 25.0625 C-10.01011719 25.23007812 -9.39523437 25.39765625 -8.76171875 25.5703125 C-7.95347656 25.77398437 -7.14523437 25.97765625 -6.3125 26.1875 C-5.11173828 26.50074219 -5.11173828 26.50074219 -3.88671875 26.8203125 C-1.34292767 27.33677334 -1.34292767 27.33677334 1.375 25.0625 C1.20873914 23.14447611 1.20873914 23.14447611 0.375 21.0625 C-1.63690276 19.53100383 -1.63690276 19.53100383 -4.0625 18.25 C-7.42906487 16.11300986 -8.50940364 15.28956428 -10.375 11.625 C-10.69588946 7.05232519 -9.85039294 5.03641596 -7.625 1.0625 C-4.98041621 -0.25979189 -2.94738699 -0.03427194 0 0 Z " fill="#000000" transform="translate(717.625,330.9375)"/>
<path d="M0 0 C1 1 1 1 1.0625 3.5625 C1.041875 4.366875 1.02125 5.17125 1 6 C-1.97 6 -4.94 6 -8 6 C-8.33 7.32 -8.66 8.64 -9 10 C-8.06027344 10.61488281 -8.06027344 10.61488281 -7.1015625 11.2421875 C-6.28429687 11.78101563 -5.46703125 12.31984375 -4.625 12.875 C-3.81289062 13.40867187 -3.00078125 13.94234375 -2.1640625 14.4921875 C1.87193714 17.30427389 1.87193714 17.30427389 2.40625 20.20703125 C2.57751155 24.96667513 2.54699033 27.2658814 -0.375 31.1875 C-4.08260463 33.72147439 -7.65487729 33.11782067 -11.92578125 32.4921875 C-14 32 -14 32 -15 31 C-15.04080783 29.00041636 -15.04254356 26.99954746 -15 25 C-13.01432292 25.5859375 -11.02864583 26.171875 -9.04296875 26.7578125 C-6.68854587 27.26093748 -6.68854587 27.26093748 -4 25 C-4.34581254 22.1470465 -4.74939422 21.2014485 -7.03125 19.3671875 C-7.8459375 18.87476563 -8.660625 18.38234375 -9.5 17.875 C-13.90888383 15.18223235 -13.90888383 15.18223235 -15 13 C-15.49167501 8.82479257 -15.62597924 5.22214994 -13.6875 1.4375 C-9.3713355 -0.87114613 -4.79686681 -0.48365103 0 0 Z " fill="#000000" transform="translate(203,331)"/>
<path d="M0 0 C1.98 0 3.96 0 6 0 C6 15.18 6 30.36 6 46 C4.02 46 2.04 46 0 46 C0 30.82 0 15.64 0 0 Z " fill="#000000" transform="translate(509,317)"/>
<path d="M0 0 C1.98 0 3.96 0 6 0 C6.33 0.66 6.66 1.32 7 2 C7.66 1.34 8.32 0.68 9 0 C12.125 -0.125 12.125 -0.125 15 0 C15 1.98 15 3.96 15 6 C14.05125 6.28875 13.1025 6.5775 12.125 6.875 C8.94788422 7.76825109 8.94788422 7.76825109 7 10 C6.62948007 12.3245339 6.62948007 12.3245339 6.5859375 15.0078125 C6.54726563 15.99394531 6.50859375 16.98007812 6.46875 17.99609375 C6.4378125 19.02863281 6.406875 20.06117188 6.375 21.125 C6.33632813 22.16527344 6.29765625 23.20554687 6.2578125 24.27734375 C6.16335234 26.85138311 6.07778786 29.42541155 6 32 C4.02 32 2.04 32 0 32 C0 21.44 0 10.88 0 0 Z " fill="#000000" transform="translate(463,331)"/>
<path d="M0 0 C1.98 0 3.96 0 6 0 C6.33 0.66 6.66 1.32 7 2 C7.66 1.34 8.32 0.68 9 0 C12.125 -0.125 12.125 -0.125 15 0 C15 1.98 15 3.96 15 6 C13.865625 6.28875 12.73125 6.5775 11.5625 6.875 C10.386875 7.24625 9.21125 7.6175 8 8 C6.76939579 10.46120841 6.7942277 12.25776866 6.68359375 15.0078125 C6.64169922 15.99394531 6.59980469 16.98007812 6.55664062 17.99609375 C6.51732422 19.02863281 6.47800781 20.06117188 6.4375 21.125 C6.39431641 22.16527344 6.35113281 23.20554687 6.30664062 24.27734375 C6.2003712 26.85142528 6.09833417 29.42560508 6 32 C4.02 32 2.04 32 0 32 C0 21.44 0 10.88 0 0 Z " fill="#000000" transform="translate(169,331)"/>
<path d="M0 0 C2.97 0 5.94 0 9 0 C9 7.92 9 15.84 9 24 C6.03 24 3.06 24 0 24 C0 16.08 0 8.16 0 0 Z " fill="#000000" transform="translate(425,111)"/>
<path d="M0 0 C2.97 0 5.94 0 9 0 C9 7.92 9 15.84 9 24 C6.03 24 3.06 24 0 24 C0 16.08 0 8.16 0 0 Z " fill="#000000" transform="translate(443,0)"/>
<path d="M0 0 C1.65 0 3.3 0 5 0 C5 10.56 5 21.12 5 32 C3.35 32 1.7 32 0 32 C0 21.44 0 10.88 0 0 Z " fill="#000000" transform="translate(641,331)"/>
<path d="M0 0 C1.65 0 3.3 0 5 0 C5 10.56 5 21.12 5 32 C3.35 32 1.7 32 0 32 C0 21.44 0 10.88 0 0 Z " fill="#000000" transform="translate(213,331)"/>
<path d="M0 0 C1.65 0 3.3 0 5 0 C5 10.56 5 21.12 5 32 C3.35 32 1.7 32 0 32 C0 21.44 0 10.88 0 0 Z " fill="#000000" transform="translate(104,331)"/>
<path d="M0 0 C1.65 0 3.3 0 5 0 C5 2.31 5 4.62 5 7 C3.35 7 1.7 7 0 7 C0 4.69 0 2.38 0 0 Z " fill="#000000" transform="translate(641,320)"/>
<path d="M0 0 C1.65 0 3.3 0 5 0 C5 2.31 5 4.62 5 7 C3.35 7 1.7 7 0 7 C0 4.69 0 2.38 0 0 Z " fill="#000000" transform="translate(213,320)"/>
<path d="M0 0 C1.65 0 3.3 0 5 0 C5 2.31 5 4.62 5 7 C3.35 7 1.7 7 0 7 C0 4.69 0 2.38 0 0 Z " fill="#000000" transform="translate(104,320)"/>
</svg>
